<mxfile host="app.diagrams.net" modified="2024-02-09T15:36:02.120Z" agent="Mozilla/5.0 (Windows NT 10.0; Win64; x64) AppleWebKit/537.36 (KHTML, like Gecko) Chrome/121.0.0.0 Safari/537.36" etag="uugVI3Kffwtm94FnQI4R" version="23.1.2" type="github">
  <diagram name="Page-1" id="_5_G6goOoMJmFu429JUK">
    <mxGraphModel dx="712" dy="786" grid="1" gridSize="10" guides="1" tooltips="1" connect="1" arrows="1" fold="1" page="1" pageScale="1" pageWidth="850" pageHeight="1100" math="0" shadow="0">
      <root>
        <mxCell id="0" />
        <mxCell id="1" parent="0" />
        <mxCell id="hEsmfpCyq59ZMb57Idlo-7" style="edgeStyle=orthogonalEdgeStyle;rounded=0;orthogonalLoop=1;jettySize=auto;html=1;exitX=0.5;exitY=1;exitDx=0;exitDy=0;entryX=0.5;entryY=0;entryDx=0;entryDy=0;" parent="1" source="hEsmfpCyq59ZMb57Idlo-1" target="hEsmfpCyq59ZMb57Idlo-3" edge="1">
          <mxGeometry relative="1" as="geometry" />
        </mxCell>
        <mxCell id="hEsmfpCyq59ZMb57Idlo-1" value="&lt;font style=&quot;font-size: 18px;&quot;&gt;Start&lt;/font&gt;" style="ellipse;whiteSpace=wrap;html=1;" parent="1" vertex="1">
          <mxGeometry x="75" y="20" width="120" height="80" as="geometry" />
        </mxCell>
        <mxCell id="hEsmfpCyq59ZMb57Idlo-9" style="edgeStyle=orthogonalEdgeStyle;rounded=0;orthogonalLoop=1;jettySize=auto;html=1;entryX=0.5;entryY=0;entryDx=0;entryDy=0;" parent="1" source="hEsmfpCyq59ZMb57Idlo-3" target="hEsmfpCyq59ZMb57Idlo-8" edge="1">
          <mxGeometry relative="1" as="geometry" />
        </mxCell>
        <mxCell id="hEsmfpCyq59ZMb57Idlo-3" value="&lt;font style=&quot;font-size: 18px;&quot;&gt;create array that contains first 25 values of Fibonacci sequence&lt;/font&gt;" style="whiteSpace=wrap;html=1;aspect=fixed;" parent="1" vertex="1">
          <mxGeometry x="70" y="140" width="130" height="130" as="geometry" />
        </mxCell>
        <mxCell id="hEsmfpCyq59ZMb57Idlo-12" style="edgeStyle=orthogonalEdgeStyle;rounded=0;orthogonalLoop=1;jettySize=auto;html=1;entryX=0.5;entryY=0;entryDx=0;entryDy=0;" parent="1" source="hEsmfpCyq59ZMb57Idlo-8" target="hEsmfpCyq59ZMb57Idlo-11" edge="1">
          <mxGeometry relative="1" as="geometry" />
        </mxCell>
        <mxCell id="hEsmfpCyq59ZMb57Idlo-8" value="&lt;font style=&quot;font-size: 18px;&quot;&gt;Initialize difference value and 2 offset values &lt;br&gt;(0 and 12)&lt;/font&gt;" style="whiteSpace=wrap;html=1;aspect=fixed;" parent="1" vertex="1">
          <mxGeometry x="70" y="300" width="130" height="130" as="geometry" />
        </mxCell>
        <mxCell id="hEsmfpCyq59ZMb57Idlo-14" style="edgeStyle=orthogonalEdgeStyle;rounded=0;orthogonalLoop=1;jettySize=auto;html=1;entryX=0;entryY=0.5;entryDx=0;entryDy=0;" parent="1" source="hEsmfpCyq59ZMb57Idlo-11" target="hEsmfpCyq59ZMb57Idlo-13" edge="1">
          <mxGeometry relative="1" as="geometry" />
        </mxCell>
        <mxCell id="hEsmfpCyq59ZMb57Idlo-11" value="&lt;font style=&quot;font-size: 18px;&quot;&gt;Access 1st and 4th registers with offset value&lt;/font&gt;" style="whiteSpace=wrap;html=1;aspect=fixed;" parent="1" vertex="1">
          <mxGeometry x="70" y="480" width="130" height="130" as="geometry" />
        </mxCell>
        <mxCell id="hEsmfpCyq59ZMb57Idlo-15" style="edgeStyle=orthogonalEdgeStyle;rounded=0;orthogonalLoop=1;jettySize=auto;html=1;" parent="1" source="hEsmfpCyq59ZMb57Idlo-13" edge="1">
          <mxGeometry relative="1" as="geometry">
            <mxPoint x="335" y="680" as="targetPoint" />
          </mxGeometry>
        </mxCell>
        <mxCell id="hEsmfpCyq59ZMb57Idlo-19" style="edgeStyle=orthogonalEdgeStyle;rounded=0;orthogonalLoop=1;jettySize=auto;html=1;" parent="1" source="hEsmfpCyq59ZMb57Idlo-13" target="hEsmfpCyq59ZMb57Idlo-18" edge="1">
          <mxGeometry relative="1" as="geometry" />
        </mxCell>
        <mxCell id="hEsmfpCyq59ZMb57Idlo-13" value="&lt;font style=&quot;font-size: 18px;&quot;&gt;4th register &lt;br&gt;&amp;gt;=&lt;br&gt;1st register&lt;/font&gt;" style="rhombus;whiteSpace=wrap;html=1;" parent="1" vertex="1">
          <mxGeometry x="260" y="472.5" width="150" height="145" as="geometry" />
        </mxCell>
        <mxCell id="hEsmfpCyq59ZMb57Idlo-16" value="&lt;font style=&quot;font-size: 18px;&quot;&gt;End&lt;/font&gt;" style="ellipse;whiteSpace=wrap;html=1;" parent="1" vertex="1">
          <mxGeometry x="275" y="680" width="120" height="80" as="geometry" />
        </mxCell>
        <mxCell id="hEsmfpCyq59ZMb57Idlo-24" style="edgeStyle=orthogonalEdgeStyle;rounded=0;orthogonalLoop=1;jettySize=auto;html=1;entryX=0;entryY=0.5;entryDx=0;entryDy=0;" parent="1" source="hEsmfpCyq59ZMb57Idlo-18" target="hEsmfpCyq59ZMb57Idlo-22" edge="1">
          <mxGeometry relative="1" as="geometry" />
        </mxCell>
        <mxCell id="hEsmfpCyq59ZMb57Idlo-18" value="&lt;font style=&quot;font-size: 18px;&quot;&gt;Subtract 1st register from 4th register value, set that to difference value&lt;/font&gt;" style="whiteSpace=wrap;html=1;aspect=fixed;" parent="1" vertex="1">
          <mxGeometry x="470" y="480" width="130" height="130" as="geometry" />
        </mxCell>
        <mxCell id="hEsmfpCyq59ZMb57Idlo-20" value="&lt;font style=&quot;font-size: 18px;&quot;&gt;False&lt;/font&gt;" style="text;html=1;strokeColor=none;fillColor=none;align=center;verticalAlign=middle;whiteSpace=wrap;rounded=0;" parent="1" vertex="1">
          <mxGeometry x="350" y="630" width="60" height="30" as="geometry" />
        </mxCell>
        <mxCell id="hEsmfpCyq59ZMb57Idlo-21" value="&lt;font style=&quot;font-size: 18px;&quot;&gt;True&lt;/font&gt;" style="text;html=1;strokeColor=none;fillColor=none;align=center;verticalAlign=middle;whiteSpace=wrap;rounded=0;" parent="1" vertex="1">
          <mxGeometry x="400" y="510" width="60" height="30" as="geometry" />
        </mxCell>
        <mxCell id="hEsmfpCyq59ZMb57Idlo-26" style="edgeStyle=orthogonalEdgeStyle;rounded=0;orthogonalLoop=1;jettySize=auto;html=1;entryX=0.5;entryY=1;entryDx=0;entryDy=0;" parent="1" source="hEsmfpCyq59ZMb57Idlo-22" target="hEsmfpCyq59ZMb57Idlo-25" edge="1">
          <mxGeometry relative="1" as="geometry" />
        </mxCell>
        <mxCell id="hEsmfpCyq59ZMb57Idlo-22" value="&lt;font style=&quot;font-size: 18px;&quot;&gt;Increment offset value by 4&lt;br&gt;(each value in the array is a word)&lt;br&gt;&lt;/font&gt;" style="whiteSpace=wrap;html=1;aspect=fixed;" parent="1" vertex="1">
          <mxGeometry x="640" y="480" width="130" height="130" as="geometry" />
        </mxCell>
        <mxCell id="hEsmfpCyq59ZMb57Idlo-28" style="edgeStyle=orthogonalEdgeStyle;rounded=0;orthogonalLoop=1;jettySize=auto;html=1;exitX=0;exitY=0.5;exitDx=0;exitDy=0;" parent="1" source="hEsmfpCyq59ZMb57Idlo-25" edge="1">
          <mxGeometry relative="1" as="geometry">
            <mxPoint x="130" y="460" as="targetPoint" />
            <Array as="points">
              <mxPoint x="270" y="410" />
              <mxPoint x="270" y="460" />
            </Array>
          </mxGeometry>
        </mxCell>
        <mxCell id="hEsmfpCyq59ZMb57Idlo-25" value="&lt;font style=&quot;font-size: 18px;&quot;&gt;Display &lt;br&gt;difference&amp;nbsp; &lt;br&gt;to LED&lt;/font&gt;" style="shape=parallelogram;perimeter=parallelogramPerimeter;whiteSpace=wrap;html=1;fixedSize=1;" parent="1" vertex="1">
          <mxGeometry x="630" y="370" width="150" height="80" as="geometry" />
        </mxCell>
      </root>
    </mxGraphModel>
  </diagram>
</mxfile>
